<?xml version="1.0" encoding="utf-8"?>
<svg version="1.1" xmlns:xlink="http://www.w3.org/1999/xlink" width="368px" height="116px" xmlns="http://www.w3.org/2000/svg">
  <defs>
    <linearGradient gradientUnits="userSpaceOnUse" x1="0" y1="58" x2="368" y2="58" id="LinearGradient1454">
      <stop id="Stop1455" stop-color="#3399ff" offset="0" />
      <stop id="Stop1456" stop-color="#3399ff" offset="0.26" />
      <stop id="Stop1457" stop-color="#ffffff" offset="0.48" />
      <stop id="Stop1458" stop-color="#3399ff" offset="0.74" />
      <stop id="Stop1459" stop-color="#3399ff" offset="1" />
    </linearGradient>
    <mask fill="white" id="clip1460">
      <path d="M 368 0.45261984392353  L 1.88473969469447 0.45261984392353  C 1.88473969469447 0.45261984392353  0.181637270142445 38.6802783268881  0.832579185520362 53.8874863643473  C 1.92347803431605 79.3729027272329  0.0557760839048973 116.283683544729  1.88473969469447 115.719806763285  C 176.81786087216 61.7872272654888  368 109.820353559485  368 109.820353559485  L 368 55.1364867017041  L 368 0.45261984392353  Z " fill-rule="evenodd" />
    </mask>
  </defs>
  <g transform="matrix(1 0 0 1 -635 -11 )">
    <path d="M 368 0.45261984392353  L 1.88473969469447 0.45261984392353  C 1.88473969469447 0.45261984392353  0.181637270142445 38.6802783268881  0.832579185520362 53.8874863643473  C 1.92347803431605 79.3729027272329  0.0557760839048973 116.283683544729  1.88473969469447 115.719806763285  C 176.81786087216 61.7872272654888  368 109.820353559485  368 109.820353559485  L 368 55.1364867017041  L 368 0.45261984392353  Z " fill-rule="nonzero" fill="#062043" stroke="none" transform="matrix(1 0 0 1 635 11 )" />
    <path d="M 368 0.45261984392353  L 1.88473969469447 0.45261984392353  C 1.88473969469447 0.45261984392353  0.181637270142445 38.6802783268881  0.832579185520362 53.8874863643473  C 1.92347803431605 79.3729027272329  0.0557760839048973 116.283683544729  1.88473969469447 115.719806763285  C 176.81786087216 61.7872272654888  368 109.820353559485  368 109.820353559485  L 368 55.1364867017041  L 368 0.45261984392353  Z " stroke-width="4" stroke="url(#LinearGradient1454)" fill="none" transform="matrix(1 0 0 1 635 11 )" mask="url(#clip1460)" />
  </g>
</svg>