<?xml version="1.0" encoding="utf-8"?>
<svg version="1.1" xmlns:xlink="http://www.w3.org/1999/xlink" width="184px" height="51px" xmlns="http://www.w3.org/2000/svg">
  <defs>
    <linearGradient gradientUnits="userSpaceOnUse" x1="92" y1="0" x2="92" y2="51" id="LinearGradient2205">
      <stop id="Stop2206" stop-color="#0000ff" offset="0" />
      <stop id="Stop2207" stop-color="#8080ff" offset="0.42" />
      <stop id="Stop2208" stop-color="#80ffff" offset="1" />
    </linearGradient>
    <mask fill="white" id="clip2209">
      <path d="M 0 51  L 0 25.5  L 0 0  L 184 0  L 184 25.5  L 184 51  L 0 51  Z " fill-rule="evenodd" />
    </mask>
  </defs>
  <g transform="matrix(1 0 0 1 -123 0 )">
    <path d="M 0 51  L 0 25.5  L 0 0  L 184 0  L 184 25.5  L 184 51  L 0 51  Z " fill-rule="nonzero" fill="#016fe8" stroke="none" fill-opacity="0.0980392156862745" transform="matrix(1 0 0 1 123 0 )" />
    <path d="M 0 51  L 0 25.5  L 0 0  L 184 0  L 184 25.5  L 184 51  L 0 51  Z " stroke-width="4" stroke="url(#LinearGradient2205)" fill="none" transform="matrix(1 0 0 1 123 0 )" mask="url(#clip2209)" />
  </g>
</svg>