<?xml version="1.0" encoding="utf-8"?>
<svg version="1.1" xmlns:xlink="http://www.w3.org/1999/xlink" width="364px" height="112px" xmlns="http://www.w3.org/2000/svg">
  <defs>
    <linearGradient gradientUnits="userSpaceOnUse" x1="0" y1="56" x2="364" y2="56" id="LinearGradient1395">
      <stop id="Stop1396" stop-color="#3399ff" offset="0" />
      <stop id="Stop1397" stop-color="#3399ff" offset="0.26" />
      <stop id="Stop1398" stop-color="#ffffff" offset="0.48" />
      <stop id="Stop1399" stop-color="#3399ff" offset="0.74" />
      <stop id="Stop1400" stop-color="#3399ff" offset="1" />
    </linearGradient>
    <mask fill="white" id="clip1401">
      <path d="M 363.485875706215 0.257471264367801  L 14.3954802259887 0.257471264367801  L 0 33.2137931034483  L 0 95.0068965517241  L 10.7966101694915 110.455172413793  L 332.124293785311 111.485057471264  L 339.322033898305 62.5655172413793  L 363.485875706215 0.257471264367801  Z " fill-rule="evenodd" />
    </mask>
  </defs>
  <g transform="matrix(1 0 0 1 -100 -224 )">
    <path d="M 363.485875706215 0.257471264367801  L 14.3954802259887 0.257471264367801  L 0 33.2137931034483  L 0 95.0068965517241  L 10.7966101694915 110.455172413793  L 332.124293785311 111.485057471264  L 339.322033898305 62.5655172413793  L 363.485875706215 0.257471264367801  Z " fill-rule="nonzero" fill="#062043" stroke="none" transform="matrix(1 0 0 1 100 224 )" />
    <path d="M 363.485875706215 0.257471264367801  L 14.3954802259887 0.257471264367801  L 0 33.2137931034483  L 0 95.0068965517241  L 10.7966101694915 110.455172413793  L 332.124293785311 111.485057471264  L 339.322033898305 62.5655172413793  L 363.485875706215 0.257471264367801  Z " stroke-width="4" stroke="url(#LinearGradient1395)" fill="none" transform="matrix(1 0 0 1 100 224 )" mask="url(#clip1401)" />
  </g>
</svg>