<?xml version="1.0" encoding="utf-8"?>
<svg version="1.1" xmlns:xlink="http://www.w3.org/1999/xlink" width="780px" height="81px" xmlns="http://www.w3.org/2000/svg">
  <defs>
    <linearGradient gradientUnits="userSpaceOnUse" x1="385" y1="71" x2="385" y2="0" id="LinearGradient600">
      <stop id="Stop601" stop-color="#1acdfd" stop-opacity="0.149019607843137" offset="0" />
      <stop id="Stop602" stop-color="#1acdfd" stop-opacity="0" offset="1" />
    </linearGradient>
    <mask fill="white" id="clip603">
      <path d="M 723.242774566476 71  L 682.346830985915 71  L 88.6747925313587 71  L 48.5606936416177 71  L 0.468208092486407 0.348820506008984  L 385.500081985192 0.348820506008984  L 769.023121387283 1.98058281208312  L 723.242774566476 71  Z " fill-rule="evenodd" />
    </mask>
    <filter x="578px" y="6px" width="780px" height="81px" filterUnits="userSpaceOnUse" id="filter604">
      <feOffset dx="0" dy="0" in="SourceAlpha" result="shadowOffsetInner" />
      <feGaussianBlur stdDeviation="2.5" in="shadowOffsetInner" result="shadowGaussian" />
      <feComposite in2="shadowGaussian" operator="atop" in="SourceAlpha" result="shadowComposite" />
      <feColorMatrix type="matrix" values="0 0 0 0 0.101960784313725  0 0 0 0 0.803921568627451  0 0 0 0 0.992156862745098  0 0 0 1 0  " in="shadowComposite" />
    </filter>
    <g id="widget605">
      <path d="M 723.242774566476 71  L 682.346830985915 71  L 88.6747925313587 71  L 48.5606936416177 71  L 0.468208092486407 0.348820506008984  L 385.500081985192 0.348820506008984  L 769.023121387283 1.98058281208312  L 723.242774566476 71  Z " fill-rule="nonzero" fill="url(#LinearGradient600)" stroke="none" transform="matrix(1 0 0 1 583 11 )" />
      <path d="M 723.242774566476 71  L 682.346830985915 71  L 88.6747925313587 71  L 48.5606936416177 71  L 0.468208092486407 0.348820506008984  L 385.500081985192 0.348820506008984  L 769.023121387283 1.98058281208312  L 723.242774566476 71  Z " stroke-width="2" stroke="#1acdfd" fill="none" transform="matrix(1 0 0 1 583 11 )" mask="url(#clip603)" />
    </g>
  </defs>
  <g transform="matrix(1 0 0 1 -578 -6 )">
    <use xlink:href="#widget605" filter="url(#filter604)" />
    <use xlink:href="#widget605" />
  </g>
</svg>