<svg t="1636188769636" class="icon" viewBox="0 0 1024 1024" version="1.1" xmlns="http://www.w3.org/2000/svg" p-id="11587" width="24" height="24"><path d="M923.7 61.579a22.388 22.388 0 0 0-30.955 6.592L700.019 365.128h-35.082l125.766-294.53a22.378 22.378 0 1 0-41.16-17.58L616.27 365.124h-49.622c-4.163-112.074-93.896-201.942-203.659-201.942-109.766 0-199.496 89.868-203.659 201.942h-47.5a22.378 22.378 0 0 0-22.377 22.378c0 2.18 0.326 4.284 0.907 6.276v145.056c0 137.038 76.084 256.625 188.215 318.789 0.083 0.306 0.144 0.613 0.24 0.92l34.77 109.878a22.378 22.378 0 0 0 21.335 15.626h306.475a22.378 22.378 0 0 0 21.336-15.626l34.77-109.878c0.095-0.307 0.156-0.614 0.24-0.92 112.134-62.164 188.217-181.75 188.217-318.79V387.508a22.378 22.378 0 0 0-22.379-22.38c-0.153 0-0.3 0.02-0.454 0.023-0.153-0.003-0.3-0.022-0.454-0.022H753.376L930.289 92.534A22.378 22.378 0 0 0 923.7 61.58z m-560.71 146.36c85.107 0 154.812 69.795 158.904 157.186h-317.81c4.092-87.39 73.797-157.186 158.905-157.186z m262.017 731.353H351.314l-18.043-57.017a362.593 362.593 0 0 0 121.335 20.805h67.106a362.593 362.593 0 0 0 121.335-20.805l-18.04 57.017zM521.712 858.32h-67.106c-154.362 0-283.501-110.044-313.105-255.8l117.208 51.86a22.36 22.36 0 0 0 18.11 0l135.546-59.974 135.543 59.973a22.353 22.353 0 0 0 18.107 0l135.561-59.973 120.508 53.311c-44.623 122.72-162.422 210.603-300.372 210.603zM834.46 604.253l-123.826-54.779a22.353 22.353 0 0 0-18.107 0l-135.562 59.974-135.542-59.974a22.353 22.353 0 0 0-18.107 0l-135.546 59.974-132.396-58.583a319.738 319.738 0 0 1-0.25-12.03v-39.341L254.131 550.2a22.343 22.343 0 0 0 17.542 0l141.392-60.24 141.387 60.24a22.369 22.369 0 0 0 17.541 0.003l141.409-60.246 127.735 54.418a319.786 319.786 0 0 1-6.678 59.878z m6.745-194.372v85.872l-119.033-50.709a22.391 22.391 0 0 0-17.538 0L563.224 505.29l-141.386-60.243a22.35 22.35 0 0 0-17.545 0L262.901 505.29l-127.78-54.444v-40.965h495.794l0.125 0.007 0.086-0.007h80.984l0.045 0.004 0.051-0.004h128.998z" p-id="11588" fill="#ffffff"></path></svg>