<?xml version="1.0" encoding="utf-8"?>
<svg version="1.1" xmlns:xlink="http://www.w3.org/1999/xlink" width="82px" height="82px" xmlns="http://www.w3.org/2000/svg">
  <g transform="matrix(1 0 0 1 -153 -592 )">
    <path d="M 194 593  C 216.4 593  234 610.6  234 633  C 234 655.4  216.4 673  194 673  C 171.6 673  154 655.4  154 633  C 154 610.6  171.6 593  194 593  Z " fill-rule="nonzero" fill="#ffffff" stroke="none" fill-opacity="0" />
    <path d="M 194 593  C 216.4 593  234 610.6  234 633  C 234 655.4  216.4 673  194 673  C 171.6 673  154 655.4  154 633  C 154 610.6  171.6 593  194 593  Z " stroke-width="2" stroke="#174777" fill="none" />
  </g>
</svg>